<?xml version="1.0" encoding="UTF-8"?>
<svg version="1.1" xmlns="http://www.w3.org/2000/svg" width="224" height="224">
<path d="M0 0 C73.92 0 147.84 0 224 0 C224 73.92 224 147.84 224 224 C150.08 224 76.16 224 0 224 C0 150.08 0 76.16 0 0 Z " fill="#FEFEFE" transform="translate(0,0)"/>
<path d="M0 0 C7.7193294 0 12.13082509 2.60740405 17.87109375 7.640625 C24.48015133 14.69468147 25.44951806 23.07826008 25.34057617 32.38500977 C25.34123329 33.87927742 25.34123329 33.87927742 25.34190369 35.4037323 C25.33982892 38.66649605 25.31655982 41.92873327 25.29296875 45.19140625 C25.28736814 47.46540547 25.28310024 49.73940833 25.28010559 52.01341248 C25.26869353 57.97614674 25.23925765 63.9386591 25.20599365 69.90130615 C25.17521422 75.99472045 25.16158345 82.08817087 25.14648438 88.18164062 C25.11438448 100.12119083 25.06323224 112.06057691 25 124 C11.85632227 124.06961008 -1.28731137 124.12286728 -14.43113613 124.15543652 C-20.53480493 124.17107066 -26.63834731 124.19226804 -32.74194336 124.22631836 C-38.63582153 124.25899174 -44.52957834 124.27686994 -50.42354012 124.28463173 C-52.66852795 124.29016089 -54.91350939 124.30095795 -57.15844536 124.31719017 C-60.31077131 124.33907018 -63.46260017 124.34196247 -66.61499023 124.34057617 C-67.53640808 124.351362 -68.45782593 124.36214783 -69.40716553 124.3732605 C-78.41094338 124.33061078 -85.59755946 122.27620875 -92.203125 116.02734375 C-97.09826626 110.50434742 -99 106.44148786 -99 99 C-66.33 99 -33.66 99 0 99 C0 66.33 0 33.66 0 0 Z " fill="#030303" transform="translate(149,50)"/>
<path d="M0 0 C2.31 1.98 4.62 3.96 7 6 C8.2375 6.928125 8.2375 6.928125 9.5 7.875 C11.62905053 9.68469295 13.26069863 11.40872574 15.0546875 13.52734375 C19.34949322 18.48082077 23.96754317 23.07734547 28.625 27.6875 C29.45773438 28.51572266 30.29046875 29.34394531 31.1484375 30.19726562 C32.74896986 31.78887782 34.35040931 33.37957852 35.95288086 34.96923828 C39.69905672 38.68548048 43.42141715 42.42481516 47.13671875 46.171875 C48.6535904 47.69797176 50.1705188 49.22401213 51.6875 50.75 C52.45900391 51.52988281 53.23050781 52.30976562 54.02539062 53.11328125 C54.76337891 53.85449219 55.50136719 54.59570312 56.26171875 55.359375 C56.93162842 56.03452148 57.60153809 56.70966797 58.29174805 57.40527344 C59.92404963 59.08013047 59.92404963 59.08013047 62 60 C62 60.66 62 61.32 62 62 C41.54 62 21.08 62 0 62 C0 41.54 0 21.08 0 0 Z " fill="#040404" transform="translate(50,66)"/>
<path d="M0 0 C20.13 0 40.26 0 61 0 C61 20.13 61 40.26 61 61 C56.57665253 57.20855931 52.33932606 53.48598126 48.24829102 49.37768555 C47.72057602 48.85172287 47.19286102 48.32576019 46.64915466 47.78385925 C44.93157338 46.07062675 43.21761329 44.35382588 41.50390625 42.63671875 C40.3033635 41.43685043 39.1026724 40.23713053 37.90184021 39.03755188 C35.39981147 36.53699011 32.89958246 34.03464658 30.40063477 31.53100586 C27.19037569 28.31501289 23.97559795 25.10358002 20.75949192 21.89343548 C18.28625737 19.42380207 15.81539407 16.95180737 13.34525871 14.47907448 C12.15979434 13.29294151 10.97358252 12.1075551 9.786623 10.92291832 C8.13730702 9.2761255 6.49120247 7.62619021 4.84594727 5.9753418 C4.3520047 5.48342346 3.85806213 4.99150513 3.34915161 4.48468018 C0 1.11427014 0 1.11427014 0 0 Z " fill="#020202" transform="translate(66,50)"/>
</svg>
